# This file uses centimeters as units for non-parametric coordinates.

mtllib PItfall.mtl
g default
v -12.000000 -23.500000 12.000000
v -7.999990 -23.500000 12.000000
v 7.999990 -23.500000 12.000000
v 12.000000 -23.500000 12.000000
v -12.000000 -22.500000 12.000000
v -7.999990 -22.500000 12.000000
v 7.999990 -22.500000 12.000000
v 12.000000 -22.500000 12.000000
v -12.000000 -22.500000 8.000000
v -7.999990 -22.500000 8.000000
v 7.999990 -22.500000 8.000000
v 12.000000 -22.500000 8.000000
v -12.000000 -22.500000 -8.000000
v -7.999990 -22.500000 -8.000000
v 7.999990 -22.500000 -8.000000
v 12.000000 -22.500000 -8.000000
v -12.000000 -22.500000 -12.000000
v -7.999990 -22.500000 -12.000000
v 7.999990 -22.500000 -12.000000
v 12.000000 -22.500000 -12.000000
v -12.000000 -23.500000 -12.000000
v -7.999990 -23.500000 -12.000000
v 7.999990 -23.500000 -12.000000
v 12.000000 -23.500000 -12.000000
v -12.000000 -23.500000 -8.000000
v -7.999990 -23.500000 -8.000000
v 7.999990 -23.500000 -8.000000
v 12.000000 -23.500000 -8.000000
v -12.000000 -23.500000 8.000000
v -7.999990 -23.500000 8.000000
v 7.999990 -23.500000 8.000000
v 12.000000 -23.500000 8.000000
v -12.000000 0.500000 12.000000
v -7.999990 0.500000 12.000000
v -7.999990 0.500000 8.000000
v -12.000000 0.500000 8.000000
v 7.999990 0.500000 12.000000
v 7.999990 0.500000 8.000000
v 12.000000 0.500000 12.000000
v 12.000000 0.500000 8.000000
v -7.999990 0.500000 -8.000000
v -12.000000 0.500000 -8.000000
v 12.000000 0.500000 -8.000000
v 7.999990 0.500000 -8.000000
v -7.999990 0.500000 -12.000000
v -12.000000 0.500000 -12.000000
v 7.999990 0.500000 -12.000000
v 12.000000 0.500000 -12.000000
vt 0.375000 0.000000
vt 0.458333 0.000000
vt 0.541667 0.000000
vt 0.625000 0.000000
vt 0.375000 0.250000
vt 0.458333 0.250000
vt 0.541667 0.250000
vt 0.625000 0.250000
vt 0.375000 0.333333
vt 0.458333 0.333333
vt 0.541667 0.333333
vt 0.625000 0.333333
vt 0.375000 0.416667
vt 0.458333 0.416667
vt 0.541667 0.416667
vt 0.625000 0.416667
vt 0.375000 0.500000
vt 0.458333 0.500000
vt 0.541667 0.500000
vt 0.625000 0.500000
vt 0.375000 0.750000
vt 0.458333 0.750000
vt 0.541667 0.750000
vt 0.625000 0.750000
vt 0.375000 0.833333
vt 0.458333 0.833333
vt 0.541667 0.833333
vt 0.625000 0.833333
vt 0.375000 0.916667
vt 0.458333 0.916667
vt 0.541667 0.916667
vt 0.625000 0.916667
vt 0.375000 1.000000
vt 0.458333 1.000000
vt 0.541667 1.000000
vt 0.625000 1.000000
vt 0.875000 0.000000
vt 0.791667 0.000000
vt 0.708333 0.000000
vt 0.875000 0.250000
vt 0.791667 0.250000
vt 0.708333 0.250000
vt 0.125000 0.000000
vt 0.208333 0.000000
vt 0.291667 0.000000
vt 0.125000 0.250000
vt 0.208333 0.250000
vt 0.291667 0.250000
vt 0.375000 0.250000
vt 0.458333 0.250000
vt 0.375000 0.333333
vt 0.541667 0.250000
vt 0.541667 0.333333
vt 0.458333 0.333333
vt 0.625000 0.250000
vt 0.625000 0.333333
vt 0.458333 0.416667
vt 0.375000 0.416667
vt 0.625000 0.416667
vt 0.541667 0.416667
vt 0.458333 0.500000
vt 0.375000 0.500000
vt 0.541667 0.500000
vt 0.625000 0.500000
vn 0.000000 0.000000 1.000000
vn 0.000000 0.000000 1.000000
vn 0.000000 0.000000 1.000000
vn 0.000000 0.000000 1.000000
vn 0.000000 0.000000 1.000000
vn 0.000000 0.000000 1.000000
vn 0.000000 0.000000 1.000000
vn 0.000000 0.000000 1.000000
vn 0.000000 1.000000 0.000000
vn 0.000000 1.000000 0.000000
vn 0.000000 1.000000 0.000000
vn 0.000000 1.000000 0.000000
vn 0.000000 1.000000 0.000000
vn 0.000000 1.000000 0.000000
vn 0.000000 1.000000 0.000000
vn 0.000000 1.000000 0.000000
vn 0.000000 1.000000 0.000000
vn 0.000000 1.000000 0.000000
vn 0.000000 1.000000 0.000000
vn 0.000000 1.000000 0.000000
vn 0.000000 1.000000 0.000000
vn 0.000000 1.000000 0.000000
vn 0.000000 1.000000 0.000000
vn 0.000000 1.000000 0.000000
vn 0.000000 1.000000 0.000000
vn 0.000000 1.000000 0.000000
vn 0.000000 1.000000 0.000000
vn 0.000000 1.000000 0.000000
vn 0.000000 0.000000 -1.000000
vn 0.000000 0.000000 -1.000000
vn 0.000000 0.000000 -1.000000
vn 0.000000 0.000000 -1.000000
vn 0.000000 0.000000 -1.000000
vn 0.000000 0.000000 -1.000000
vn 0.000000 0.000000 -1.000000
vn 0.000000 0.000000 -1.000000
vn 0.000000 -1.000000 0.000000
vn 0.000000 -1.000000 0.000000
vn 0.000000 -1.000000 0.000000
vn 0.000000 -1.000000 0.000000
vn 0.000000 -1.000000 0.000000
vn 0.000000 -1.000000 0.000000
vn 0.000000 -1.000000 0.000000
vn 0.000000 -1.000000 0.000000
vn 0.000000 -1.000000 0.000000
vn 0.000000 -1.000000 0.000000
vn 0.000000 -1.000000 0.000000
vn 0.000000 -1.000000 0.000000
vn 0.000000 -1.000000 0.000000
vn 0.000000 -1.000000 0.000000
vn 0.000000 -1.000000 0.000000
vn 0.000000 -1.000000 0.000000
vn 1.000000 0.000000 0.000000
vn 1.000000 0.000000 0.000000
vn 1.000000 0.000000 0.000000
vn 1.000000 0.000000 0.000000
vn 1.000000 0.000000 0.000000
vn 1.000000 0.000000 0.000000
vn 1.000000 0.000000 0.000000
vn 1.000000 0.000000 0.000000
vn -1.000000 0.000000 0.000000
vn -1.000000 0.000000 0.000000
vn -1.000000 0.000000 0.000000
vn -1.000000 0.000000 0.000000
vn -1.000000 0.000000 0.000000
vn -1.000000 0.000000 0.000000
vn -1.000000 0.000000 0.000000
vn -1.000000 0.000000 0.000000
vn 0.000000 0.000000 1.000000
vn 0.000000 0.000000 1.000000
vn -1.000000 0.000000 0.000000
vn -1.000000 0.000000 0.000000
vn 0.000000 0.000000 1.000000
vn 0.000000 0.000000 -1.000000
vn 0.000000 0.000000 -1.000000
vn 0.000000 0.000000 -1.000000
vn 0.000000 0.000000 -1.000000
vn 0.000000 0.000000 1.000000
vn 1.000000 0.000000 0.000000
vn 1.000000 0.000000 0.000000
vn 1.000000 0.000000 0.000000
vn 1.000000 0.000000 0.000000
vn 1.000000 0.000000 0.000000
vn 1.000000 0.000000 0.000000
vn -1.000000 0.000000 0.000000
vn 1.000000 0.000000 0.000000
vn -1.000000 0.000000 0.000000
vn -1.000000 0.000000 0.000000
vn -1.000000 0.000000 0.000000
vn -1.000000 0.000000 0.000000
vn 0.000000 0.000000 -1.000000
vn 0.000000 0.000000 -1.000000
vn -1.000000 0.000000 0.000000
vn 0.000000 0.000000 1.000000
vn 0.000000 0.000000 1.000000
vn 0.000000 0.000000 1.000000
vn 0.000000 0.000000 1.000000
vn 0.000000 0.000000 -1.000000
vn 1.000000 0.000000 0.000000
vn 0.000000 0.000000 -1.000000
s 1
g Pitfall
usemtl initialShadingGroup
f 1/1/1 2/2/2 6/6/3 5/5/4
f 2/2/2 3/3/5 7/7/6 6/6/3
f 3/3/5 4/4/7 8/8/8 7/7/6
s 2
f 33/49/9 34/50/10 35/54/11 36/51/12
f 34/50/10 37/52/13 38/53/14 35/54/11
f 37/52/13 39/55/15 40/56/16 38/53/14
f 36/51/12 35/54/11 41/57/17 42/58/18
s off
f 10/10/19 11/11/20 15/15/21 14/14/22
s 2
f 38/53/14 40/56/16 43/59/23 44/60/24
f 42/58/18 41/57/17 45/61/25 46/62/26
f 41/57/17 44/60/24 47/63/27 45/61/25
f 44/60/24 43/59/23 48/64/28 47/63/27
s 3
f 17/17/29 18/18/30 22/22/31 21/21/32
f 18/18/30 19/19/33 23/23/34 22/22/31
f 19/19/33 20/20/35 24/24/36 23/23/34
s 4
f 21/21/37 22/22/38 26/26/39 25/25/40
f 22/22/38 23/23/41 27/27/42 26/26/39
f 23/23/41 24/24/43 28/28/44 27/27/42
f 25/25/40 26/26/39 30/30/45 29/29/46
f 26/26/39 27/27/42 31/31/47 30/30/45
f 27/27/42 28/28/44 32/32/48 31/31/47
f 29/29/46 30/30/45 2/34/49 1/33/50
f 30/30/45 31/31/47 3/35/51 2/34/49
f 31/31/47 32/32/48 4/36/52 3/35/51
s 5
f 28/38/53 24/37/54 20/40/55 16/41/56
f 32/39/57 28/38/53 16/41/56 12/42/58
f 4/4/59 32/39/57 12/42/58 8/8/60
s 6
f 21/43/61 25/44/62 13/47/63 17/46/64
f 25/44/62 29/45/65 9/48/66 13/47/63
f 29/45/65 1/1/67 5/5/68 9/48/66
s 1
f 5/5/4 6/6/3 34/50/69 33/49/70
s 6
f 9/9/66 5/5/68 33/49/71 36/51/72
s 1
f 6/6/3 7/7/6 37/52/73 34/50/69
s off
f 11/11/74 10/10/75 35/54/76 38/53/77
s 1
f 7/7/6 8/8/8 39/55/78 37/52/73
s 5
f 8/8/60 12/12/58 40/56/79 39/55/80
s off
f 10/10/81 14/14/82 41/57/83 35/54/84
s 6
f 13/13/63 9/9/66 36/51/72 42/58/85
s 5
f 12/12/58 16/16/56 43/59/86 40/56/79
s off
f 15/15/87 11/11/88 38/53/89 44/60/90
s 3
f 18/18/30 17/17/29 46/62/91 45/61/92
s 6
f 17/17/64 13/13/63 42/58/85 46/62/93
s off
f 14/14/94 15/15/95 44/60/96 41/57/97
s 3
f 19/19/33 18/18/30 45/61/92 47/63/98
s 5
f 16/16/56 20/20/55 48/64/99 43/59/86
s 3
f 20/20/35 19/19/33 47/63/98 48/64/100
